<svg xmlns="http://www.w3.org/2000/svg" viewBox="0 0 37.28 37.28"><title>Ресурс 3</title><g id="Слой_2" data-name="Слой 2"><g id="Слой_1-2" data-name="Слой 1"><path d="M18.64,24.62a1.5,1.5,0,0,1-1.5-1.5V12.92a1.5,1.5,0,0,1,3,0v10.2A1.5,1.5,0,0,1,18.64,24.62Z"/><path d="M18.64,25.26a1.5,1.5,0,0,1-1.06-.44L13.4,20.63a1.5,1.5,0,0,1,2.13-2.12l3.11,3.12,2.93-3a1.5,1.5,0,0,1,2.14,2.1l-4,4.06a1.5,1.5,0,0,1-1.06.45Z"/><path d="M18.64,37.28A18.64,18.64,0,1,1,37.28,18.64,18.66,18.66,0,0,1,18.64,37.28ZM18.64,3A15.64,15.64,0,1,0,34.28,18.64,15.66,15.66,0,0,0,18.64,3Z"/></g></g></svg>