<svg xmlns="http://www.w3.org/2000/svg" viewBox="0 0 21.45 21.15"><title>Ресурс 1</title><g id="Слой_2" data-name="Слой 2"><g id="Layer_1" data-name="Layer 1"><path d="M21.45,19.35H.05V0H21.45ZM.75,18.67h20V.69H.75Z"/><rect x="3.87" y="0.35" width="0.75" height="18.67"/><rect x="7.62" y="0.35" width="0.75" height="18.67"/><path d="M2.35,17.44a1.2,1.2,0,1,1,1.19-1.2A1.2,1.2,0,0,1,2.35,17.44Zm0-1.65a.45.45,0,1,0,.44.45A.45.45,0,0,0,2.35,15.79Z"/><path d="M6.14,17.44a1.2,1.2,0,1,1,1.19-1.2A1.2,1.2,0,0,1,6.14,17.44Zm0-1.65a.45.45,0,1,0,.44.45A.45.45,0,0,0,6.14,15.79Z"/><rect y="20.4" width="21.41" height="0.75"/><rect x="10.39" y="3.88" width="5.75" height="0.75"/><rect x="10.39" y="5.7" width="8.51" height="0.75"/><rect x="10.39" y="7.52" width="5.75" height="0.75"/><rect x="10.39" y="9.34" width="8.51" height="0.75"/></g></g></svg>