<svg xmlns="http://www.w3.org/2000/svg" viewBox="0 0 40.39 33.71"><title>Ресурс 1</title><g id="Слой_2" data-name="Слой 2"><g id="Слой_1-2" data-name="Слой 1"><path d="M20.39,33.71A16.6,16.6,0,0,1,7.51,27.58a1.5,1.5,0,0,1,2.33-1.89,13.61,13.61,0,0,0,13.21,4.77,1.5,1.5,0,1,1,.58,2.94A16.74,16.74,0,0,1,20.39,33.71Z"/><path d="M8.35,27.73a1.5,1.5,0,0,1-1.16-.55A16.58,16.58,0,0,1,4.24,11.61a1.5,1.5,0,0,1,2.86.91A13.59,13.59,0,0,0,9.51,25.29a1.5,1.5,0,0,1-1.16,2.45Z"/><polygon points="0 10.63 10.53 4.95 10.18 16.91 0 10.63"/><path d="M31.71,8.59A1.5,1.5,0,0,1,30.55,8,13.61,13.61,0,0,0,17.33,3.26,1.5,1.5,0,0,1,16.75.32,16.59,16.59,0,0,1,32.88,6.14a1.5,1.5,0,0,1-1.16,2.45Z"/><path d="M34.71,23.14a1.5,1.5,0,0,1-1.43-2A13.59,13.59,0,0,0,30.87,8.43,1.5,1.5,0,1,1,33.2,6.54,16.58,16.58,0,0,1,36.14,22.1,1.5,1.5,0,0,1,34.71,23.14Z"/><polygon points="40.38 23.09 29.85 28.76 30.2 16.8 40.38 23.09"/></g></g></svg>