<svg xmlns="http://www.w3.org/2000/svg" viewBox="0 0 232.83 109.69"><defs><style>.cls-1,.cls-2,.cls-3{fill:#810048;}.cls-1,.cls-3{stroke:#810048;stroke-miterlimit:10;}.cls-1{stroke-width:0.25px;}.cls-3{stroke-width:0.1px;}</style></defs><title>Ресурс 1</title><g id="Слой_2" data-name="Слой 2"><g id="Layer_1" data-name="Layer 1"><path class="cls-1" d="M80.43,17a1,1,0,0,0-.71-.39s-3-.31-7.23-.49V1.17A1,1,0,0,0,70.92.26L58.75,7.08c-4.45-2.86-11-6.1-18-6.1h-1.6c-7,0-13.53,3.24-18,6.1L9,.26a1,1,0,0,0-1.56.92v15c-3.73.18-6.34.45-6.38.45a1,1,0,0,0-.94,1.14C.2,18.5,1.64,33,7.44,42.43v10.7l-.81-.22a1,1,0,0,0-1.3,1c0,.92-.83,22.6,7.71,35a52.26,52.26,0,0,0,19.45,17.14,52.71,52.71,0,0,0,7.28,3.43,1,1,0,0,0,.74,0,56.2,56.2,0,0,0,6.74-3.44A52.27,52.27,0,0,0,66.64,88.94a31.93,31.93,0,0,0,2.85-5.21,33.87,33.87,0,0,0,3.68-12.95,89.68,89.68,0,0,0,1.18-16.89,1,1,0,0,0-1.3-1l-.56.15V43.76A45.3,45.3,0,0,0,78,30.65a94.76,94.76,0,0,0,2.61-12.89A1.05,1.05,0,0,0,80.43,17ZM9.54,3,20.71,9.22a1,1,0,0,0,1.09,0A38.25,38.25,0,0,1,34.07,3.68v7.54a1,1,0,1,0,2.1,0V3.3a22.09,22.09,0,0,1,2.75-.21v11a1,1,0,1,0,2.1,0v-11a22.1,22.1,0,0,1,2.75.21v7.92a1,1,0,1,0,2.1,0V3.68A38.24,38.24,0,0,1,58.13,9.18a1,1,0,0,0,1.09,0L70.39,3V16c-1.06,0-2.16,0-3.3,0-10,0-16.78,1.25-20.13,3.73a17.64,17.64,0,0,0-6.06,8.06q-.34.62-.63,1.28a17.57,17.57,0,0,0-6.45-9.34C30.48,17.24,23.71,16,13.69,16c-1.44,0-2.84,0-4.15.07Zm44.55,45a17.82,17.82,0,0,1-6-1.47,15.1,15.1,0,0,1-3.13-3.15,15.65,15.65,0,0,1-2.13-14.63A12.93,12.93,0,1,1,54.09,47.92Zm-28,0A12.94,12.94,0,1,1,38.79,32.37a15.76,15.76,0,0,1-3,10.93,15.56,15.56,0,0,1-2.37,2.58C31.56,46.74,28.5,47.92,26.12,47.92Zm11.41-3.38a17.81,17.81,0,0,0,2.84-6,17.65,17.65,0,0,0,2.88,6c.16.22.33.43.5.64l-.12.14L40.1,50l-3.37-4.48C37,45.21,37.28,44.88,37.53,44.54ZM13.69,18.08c9.42,0,15.95,1.15,18.88,3.32h0A15,15,0,1,0,22.34,49.53a17.16,17.16,0,0,1-8.43-3c-8.28-5.64-11-23.45-11.58-28C4.3,18.41,8.74,18.08,13.69,18.08ZM35.58,104c-.06.45-.12.84-.16,1.17-.45-.19-1-.44-1.63-.74-.85-.47-1.74-1-2.68-1.56,6-15.39,0-32.76-13.44-43,5.55,3.14,11.72,8,15.06,15.11C38.11,86.35,36.33,98.69,35.58,104ZM14.77,87.75C8.19,78.16,7.45,62.16,7.41,56.26c18.72,7.85,28.43,27.95,21.9,45.41-1.43-1-2.91-2-4.39-3.22a59.39,59.39,0,0,1-7.6-7.3C16.45,90.09,15.6,89,14.77,87.75Zm29.5,17.38c0-.33-.1-.72-.16-1.17-.76-5.27-2.53-17.61,2.84-29.06,3.34-7.12,9.51-12,15.06-15.11-13.46,10.27-19.4,27.62-13.46,43-.88.57-1.73,1.08-2.52,1.55S44.75,104.93,44.27,105.13Zm22-19.58A54.08,54.08,0,0,1,55.14,97.93c-1.62,1.36-3.24,2.58-4.8,3.65C43.88,84.14,53.58,64.1,72.27,56.26,72.24,61.73,71.59,75.88,66.25,85.55Zm4.13-31.84C64.58,55.67,50.95,61.43,45,74c-5.64,12-3.8,24.8-3,30.25.11.78.23,1.59.25,2a1.07,1.07,0,0,0-.06.17c-1,.49-1.71.82-2.13,1-.49-.19-1.43-.57-2.69-1.16,0-.37.14-1.18.25-2,.78-5.46,2.62-18.23-3-30.25C28.81,61.61,15.48,55.83,9.54,53.8V45.35a16.14,16.14,0,0,0,3.19,2.93,19.1,19.1,0,0,0,10.76,3.4,17.18,17.18,0,0,0,11.09-4l.84-.39,3.84,5.11a1,1,0,0,0,1.68,0l3.84-5.11c.57.28,1.4.66,2.37,1.05a17.36,17.36,0,0,0,10,3.12h0A20.65,20.65,0,0,0,68,48.3a12.6,12.6,0,0,0,2.38-1.94ZM76,30.11c-2.38,8.52-5.53,14.2-9.1,16.41a18.79,18.79,0,0,1-8.21,2.78,15,15,0,1,0-9.41-28.56c3.3-1.74,9.4-2.65,17.8-2.65,4.94,0,9.37.33,11.33.49A96.17,96.17,0,0,1,76,30.11Z"/><path class="cls-2" d="M26.08,25.78a9.1,9.1,0,1,0,9.1,9.1A9.1,9.1,0,0,0,26.08,25.78Zm0,12.46a3.36,3.36,0,1,1,3.36-3.36A3.36,3.36,0,0,1,26.08,38.24Z"/><path class="cls-2" d="M53.91,25.78a9.1,9.1,0,1,0,9.1,9.1A9.1,9.1,0,0,0,53.91,25.78Zm0,12.46a3.36,3.36,0,1,1,3.36-3.36A3.36,3.36,0,0,1,53.91,38.24Z"/><path class="cls-1" d="M102.44,26.73H99.29A5.16,5.16,0,0,1,99,25a1.07,1.07,0,0,1,.28-.83,1.38,1.38,0,0,1,.94-.26h10.86q10.18,0,13.7,2.5t3.52,8.17a10.91,10.91,0,0,1-4.21,9.15Q119.85,47,110,47h-1.38q.05,8.36.22,11.19H113a4.23,4.23,0,0,1,.33,1.58A1,1,0,0,1,112.14,61h-13a4.82,4.82,0,0,1-.35-1.71,1.07,1.07,0,0,1,.28-.83,1.38,1.38,0,0,1,.94-.26h2.47q.22-3.77.22-19.36Q102.66,30.5,102.44,26.73Zm8.42,16.86q6,0,8.36-1.71t2.39-5.78A8,8,0,0,0,119.36,30q-2.25-2.14-7.39-2.15a16.16,16.16,0,0,0-3.1.27q-.22,2.34-.22,11v4.43Z"/><path class="cls-1" d="M132,35.47a.88.88,0,0,1,.57-.94,63,63,0,0,1,7.19-.42,16.88,16.88,0,0,1,0,3.34,20.42,20.42,0,0,1,5.8-2.82,18.76,18.76,0,0,1,5.06-.79,2,2,0,0,1,1,.18q.26.18.26.77a9.43,9.43,0,0,1-.37,2.5,3,3,0,0,1-.88,1.68,4.38,4.38,0,0,1-1.71.54,3.58,3.58,0,0,1-1.4.08,9.1,9.1,0,0,1-1.23-1.49,5.21,5.21,0,0,0-3.91,1.53q-1.49,1.53-1.49,6.18,0,8.34.22,12.38h3.83a3.59,3.59,0,0,1,.33,1.52,1.33,1.33,0,0,1-.3,1,1.75,1.75,0,0,1-1.14.27H132.31a4.33,4.33,0,0,1-.35-1.63,1.17,1.17,0,0,1,.3-.88,1.39,1.39,0,0,1,1-.29h1.87q.22-4,.22-10.59,0-8-.62-9.29A2.41,2.41,0,0,0,132.31,37,3.69,3.69,0,0,1,132,35.47Z"/><path class="cls-1" d="M170.87,58.82a20.57,20.57,0,0,1-4.68,2,17,17,0,0,1-4.71.69q-3.67,0-5.46-1.72a6.79,6.79,0,0,1-1.79-5.12,7.43,7.43,0,0,1,3-6.35q3-2.2,9.15-2.2h4q-.16-4.78-1.37-6.65t-4.28-1.87a14.61,14.61,0,0,0-3.12.33,10,10,0,0,1-.94,1.68,9.29,9.29,0,0,1-1.56.48q-1.41.37-2-.14A5.51,5.51,0,0,1,156,38.13a5.7,5.7,0,0,1-.58-2.14,1,1,0,0,1,.45-.84,14.77,14.77,0,0,1,3.65-.73,50.84,50.84,0,0,1,6.82-.43q4.81,0,7.1,1.66t2.29,6.08v8.36q0,5.81.5,7.09a1.37,1.37,0,0,0,1.67,1,2.43,2.43,0,0,1,.33,1.17q0,.92-1.15,1.41a8.13,8.13,0,0,1-3.11.49,3.6,3.6,0,0,1-1.45-.23A6.14,6.14,0,0,1,170.87,58.82Zm-.54-9.18a28.09,28.09,0,0,0-4.83-.41q-3.1,0-4.33,1a4,4,0,0,0-1.24,3.26A4.44,4.44,0,0,0,161,56.8a4.65,4.65,0,0,0,3.41,1.1,8,8,0,0,0,3.34-.71,3.71,3.71,0,0,0,2-2,11.55,11.55,0,0,0,.5-4Z"/><path class="cls-1" d="M199.67,37.45h-1.47a4.15,4.15,0,0,1-.33-1.6,1.64,1.64,0,0,1,.31-1.14,1.36,1.36,0,0,1,1-.33h7.11a3.82,3.82,0,0,1,.35,1.63,1.45,1.45,0,0,1-.35,1.14,1.91,1.91,0,0,1-1.22.3h-.43q-1,2.74-4.17,12.16t-4.1,10.67a3.41,3.41,0,0,1-2.92,1.25q-3.23,0-3.46-.3t-3.2-9.61q-3-9.31-3.63-11a17.26,17.26,0,0,0-1.09-2.46,1.89,1.89,0,0,0-1-.91,5,5,0,0,0-1.49-.18,4.34,4.34,0,0,1-.35-1.63,1,1,0,0,1,.86-1.06,25.08,25.08,0,0,1,4.71-.24,6.84,6.84,0,0,1,2.34.27,1.91,1.91,0,0,1,1,1,15.61,15.61,0,0,1,.81,3.19q.47,2.51,2.74,10.36t2.52,7.85q.26,0,2.66-8.21A88.06,88.06,0,0,0,199.67,37.45Z"/><path class="cls-1" d="M219.68,61.53q-5.89,0-8.66-3.12T208.25,49q0-7.25,3.35-11.27t9.68-4q5.89,0,8.66,3.12t2.77,9.45q0,7.22-3.35,11.24T219.68,61.53Zm1-3.64a4.81,4.81,0,0,0,4.48-2.34q1.38-2.33,1.38-7.19,0-5.59-1.43-8.31a5.07,5.07,0,0,0-4.9-2.72,4.81,4.81,0,0,0-4.48,2.34q-1.39,2.34-1.38,7.22,0,5.57,1.43,8.28A5.07,5.07,0,0,0,220.71,57.9Z"/><path class="cls-3" d="M105.95,83.88a9.3,9.3,0,0,1-2.11.91,7.67,7.67,0,0,1-2.12.31,3.43,3.43,0,0,1-2.46-.78A3.06,3.06,0,0,1,98.44,82a3.35,3.35,0,0,1,1.33-2.87,6.94,6.94,0,0,1,4.13-1h1.8a6.32,6.32,0,0,0-.62-3,2.12,2.12,0,0,0-1.93-.84,6.59,6.59,0,0,0-1.41.15,4.47,4.47,0,0,1-.42.76,4.21,4.21,0,0,1-.7.21q-.64.16-.89-.06a2.49,2.49,0,0,1-.51-.83,2.57,2.57,0,0,1-.26-1,.43.43,0,0,1,.2-.38,6.66,6.66,0,0,1,1.65-.33,22.91,22.91,0,0,1,3.07-.2,5.51,5.51,0,0,1,3.2.75,3.17,3.17,0,0,1,1,2.74v3.77a12.49,12.49,0,0,0,.23,3.2.62.62,0,0,0,.75.47,1.1,1.1,0,0,1,.15.53q0,.42-.52.64a3.66,3.66,0,0,1-1.4.22,1.63,1.63,0,0,1-.66-.1A2.76,2.76,0,0,1,105.95,83.88Zm-.24-4.14a12.66,12.66,0,0,0-2.18-.18,3.11,3.11,0,0,0-2,.47,1.81,1.81,0,0,0-.56,1.47,2,2,0,0,0,.5,1.48,2.09,2.09,0,0,0,1.54.5,3.58,3.58,0,0,0,1.51-.32,1.68,1.68,0,0,0,.92-.89,5.22,5.22,0,0,0,.23-1.79Z"/><path class="cls-3" d="M120.06,74a5.26,5.26,0,0,1,.69,2.61,4.42,4.42,0,0,1-1.33,3.34,5.87,5.87,0,0,1-4.18,1.27,3.23,3.23,0,0,0-1.67.28.93.93,0,0,0-.38.8,1,1,0,0,0,.51.92,12.84,12.84,0,0,0,3.76.28q3.2,0,4.14.65a2.21,2.21,0,0,1,.95,1.94,3.41,3.41,0,0,1-2,3.06,13.26,13.26,0,0,1-6.24,1.13,4.73,4.73,0,0,1-2.76-.56,1.89,1.89,0,0,1-.7-1.56,3.37,3.37,0,0,1,.39-1.52,6.14,6.14,0,0,1,1.09-1.5,2.21,2.21,0,0,1-1-.73,1.94,1.94,0,0,1-.36-1.19,2.2,2.2,0,0,1,.47-1.35,3.84,3.84,0,0,1,1.42-1.08,2.6,2.6,0,0,1-1.27-1.14,4.18,4.18,0,0,1-.48-2.14,4.89,4.89,0,0,1,1.32-3.53,5.28,5.28,0,0,1,4-1.38,7.45,7.45,0,0,1,2.71.48,8.29,8.29,0,0,1,1.9-.72,7.5,7.5,0,0,1,1.62.08.28.28,0,0,1,.13.26,2.34,2.34,0,0,1-.29.91q-.29.59-.54.59a7.93,7.93,0,0,1-1.62-.55Zm-6.15,11.26a3,3,0,0,0-.65,1,2.78,2.78,0,0,0-.23,1.09,1.39,1.39,0,0,0,.5,1.2,3.72,3.72,0,0,0,2,.37,8.13,8.13,0,0,0,3.32-.53A1.66,1.66,0,0,0,120,86.79a1.23,1.23,0,0,0-.82-1.22A21.3,21.3,0,0,0,113.91,85.22Zm2-11.28a2.15,2.15,0,0,0-1.73.66,3.72,3.72,0,0,0-.56,2.37,3.4,3.4,0,0,0,.54,2.14,2.07,2.07,0,0,0,1.71.67,2.44,2.44,0,0,0,1.82-.61,3.32,3.32,0,0,0,.59-2.28,3.48,3.48,0,0,0-.59-2.22A2.15,2.15,0,0,0,115.9,73.95Z"/><path class="cls-3" d="M129,72.55a4.67,4.67,0,0,1,3.38,1.08,4.82,4.82,0,0,1,1.1,3.55,2.26,2.26,0,0,1-.39,1.52,2.4,2.4,0,0,1-1.71.43h-5.41a5.62,5.62,0,0,0,.8,3.13,3.09,3.09,0,0,0,2.75,1.14,6.48,6.48,0,0,0,3.42-1,1.57,1.57,0,0,1,.53,1.11q0,.82-1.35,1.15A12.9,12.9,0,0,1,129,85q-3.14,0-4.5-1.33t-1.37-4.48a7.27,7.27,0,0,1,1.54-4.89A5.33,5.33,0,0,1,129,72.55Zm-.47,1.64a2.16,2.16,0,0,0-1.86.88,5,5,0,0,0-.7,2.74h1.26q2,0,2.74-.08t.84-.26a1.39,1.39,0,0,0,.12-.69,2.75,2.75,0,0,0-.61-1.9A2.27,2.27,0,0,0,128.5,74.19Z"/><path class="cls-3" d="M138.73,74.18A9.68,9.68,0,0,1,141.13,73a7,7,0,0,1,2.11-.38,3.54,3.54,0,0,1,2.46.75,3.84,3.84,0,0,1,.83,2.87,54.76,54.76,0,0,0,.19,7q.19.39.88.38a2,2,0,0,1,.13.71.45.45,0,0,1-.21.44,1.84,1.84,0,0,1-.77.11q-1.7,0-2.08,0a.65.65,0,0,1-.51-.26,1.41,1.41,0,0,1-.13-.72V78.56a7,7,0,0,0-.53-3.35,1.89,1.89,0,0,0-1.72-.83A2.78,2.78,0,0,0,140,75a2.48,2.48,0,0,0-.74,2.07V79.6q0,2.17.09,4h1.36a1.62,1.62,0,0,1,.15.69.6.6,0,0,1-.14.45.78.78,0,0,1-.51.12h-4.81a2,2,0,0,1-.16-.73.53.53,0,0,1,.13-.4.63.63,0,0,1,.44-.13h.84q.1-1.95.1-4.78a15.93,15.93,0,0,0-.28-4.19,1.09,1.09,0,0,0-1.08-.58,1.66,1.66,0,0,1-.16-.71.4.4,0,0,1,.26-.42,28.58,28.58,0,0,1,3.24-.19A7,7,0,0,1,138.73,74.18Z"/><path class="cls-3" d="M154.65,85.1q-3,0-4.29-1.27t-1.27-4.33a7.48,7.48,0,0,1,1.6-5.17,6.24,6.24,0,0,1,4.89-1.78,6.55,6.55,0,0,1,2.33.3,1,1,0,0,1,.73.9,2.24,2.24,0,0,1-.51,1.4,7.09,7.09,0,0,0-3.13-1,2.68,2.68,0,0,0-2.42,1.08,6.29,6.29,0,0,0-.72,3.4,7.3,7.3,0,0,0,.7,3.58,2.69,2.69,0,0,0,2.55,1.21,7.44,7.44,0,0,0,3.27-.94,2,2,0,0,1,.4,1.15q0,.7-1.27,1.07A10.26,10.26,0,0,1,154.65,85.1Z"/><path class="cls-3" d="M171.16,74.24q-.59,1.8-2.36,7.57t-2.62,6.81a3.79,3.79,0,0,1-1.92,1.33,9.26,9.26,0,0,1-2.44.29,4.77,4.77,0,0,1-1.73-.2.73.73,0,0,1-.4-.72,1.85,1.85,0,0,1,.42-1.18,12.41,12.41,0,0,0,3.39.35q1.09-.12,2.17-3.5a4.76,4.76,0,0,1-1.1-.1q-.09-.06-1.29-4.13t-1.5-5a10.5,10.5,0,0,0-.48-1.25.77.77,0,0,0-.45-.43,2.52,2.52,0,0,0-.7-.08,2,2,0,0,1-.16-.75.46.46,0,0,1,.42-.5,11.17,11.17,0,0,1,1.69-.08,4.88,4.88,0,0,1,1.32.12.76.76,0,0,1,.48.43,12.2,12.2,0,0,1,.41,1.73q.27,1.42,1.16,4.73a21.53,21.53,0,0,0,1,3.31,28.39,28.39,0,0,0,1.11-3.81,49.57,49.57,0,0,0,1.15-5h-.66a1.87,1.87,0,0,1-.15-.72.74.74,0,0,1,.14-.51.61.61,0,0,1,.46-.15H172a1.73,1.73,0,0,1,.16.73.66.66,0,0,1-.16.51.87.87,0,0,1-.55.13Z"/></g></g></svg>