<svg xmlns="http://www.w3.org/2000/svg" viewBox="0 0 25.09 24.97"><defs><style>.cls-1{stroke:#000;stroke-miterlimit:10;stroke-width:0.2px;}</style></defs><title>Ресурс 1</title><g id="Слой_2" data-name="Слой 2"><g id="Layer_1" data-name="Layer 1"><path class="cls-1" d="M11.39,21.69a8.11,8.11,0,1,1,8.11-8.11A8.12,8.12,0,0,1,11.39,21.69Zm0-15.47a7.36,7.36,0,1,0,7.36,7.36A7.37,7.37,0,0,0,11.39,6.22Z"/><path class="cls-1" d="M11.39,18.61a5,5,0,1,1,5-5A5,5,0,0,1,11.39,18.61Zm0-9.31a4.28,4.28,0,1,0,4.28,4.28A4.29,4.29,0,0,0,11.39,9.3Z"/><path class="cls-1" d="M11.39,15.12a1.54,1.54,0,1,1,1.54-1.54A1.54,1.54,0,0,1,11.39,15.12Zm0-2.33a.79.79,0,1,0,.79.79A.79.79,0,0,0,11.39,12.79Z"/><path class="cls-1" d="M11.82,13.6a.37.37,0,0,1-.26-.11.37.37,0,0,1,0-.53L21,3.4a.38.38,0,0,1,.53.53l-9.48,9.56A.38.38,0,0,1,11.82,13.6Z"/><path class="cls-1" d="M22.08,7.85H17.24V2.93h1.51V1.68H20V.1h2.73V2.29H25V4.77H23.41V6.22H22.08ZM18,7.1h3.33V5.47h1.33V4h1.58V3H21.93V.85H20.7V2.43H19.5V3.68H18Z"/><path class="cls-1" d="M20.86,7.48H20A10.61,10.61,0,1,1,17.62,5.1V4.19a11.19,11.19,0,0,0-6.23-1.9A11.29,11.29,0,1,0,22.68,13.58,11.19,11.19,0,0,0,20.86,7.48Z"/></g></g></svg>