<svg xmlns="http://www.w3.org/2000/svg" viewBox="0 0 23.05 21.5"><title>Ресурс 2</title><g id="Слой_2" data-name="Слой 2"><g id="Layer_1" data-name="Layer 1"><path d="M1.92,21.5,0,17.07v-16H3.83l0,16.16ZM.75,17l1.17,2.65L3.08,17V1.81H.75Z"/><rect x="1.67" y="1.44" width="0.5" height="15.64"/><rect x="1.28" y="18.95" width="1.28" height="0.5"/><path d="M3.26,17.45H.58a.38.38,0,0,1,0-.75H3.26a.38.38,0,0,1,0,.75Z"/><path d="M21.18,21.46H6.39V4.62H21.18Zm-14-.75H20.43V5.37H7.14Z"/><rect x="18.47" y="5" width="0.75" height="16.08"/><polygon points="23.05 19.07 20.82 19.07 20.82 18.32 22.3 18.32 22.3 2.9 23.05 2.9 23.05 19.07"/><rect x="8.35" y="7.84" width="5.75" height="0.75"/><rect x="8.35" y="9.5" width="9.17" height="0.75"/><rect x="8.35" y="11.15" width="5.75" height="0.75"/><rect x="8.35" y="12.8" width="9.17" height="0.75"/><rect x="8.35" y="14.45" width="5.75" height="0.75"/><path d="M19.78.77h-12a.37.37,0,1,1,0-.75h12a.37.37,0,1,1,0,.75Z"/><path d="M22.29,2.9H23s0,0,0-.05a2.82,2.82,0,0,0-5.64,0,2.8,2.8,0,0,0,1,2.15h1.37V4.87a2.07,2.07,0,1,1,2.51-2S22.29,2.88,22.29,2.9Z"/><path d="M6.23,2.79A2.07,2.07,0,0,1,8,.75V0A2.8,2.8,0,0,0,6.49,4.94H7.87V4.81A2.07,2.07,0,0,1,6.23,2.79Z"/><path d="M20.29,4a1.16,1.16,0,1,1,1.16-1.16A1.16,1.16,0,0,1,20.29,4Zm0-1.81a.66.66,0,1,0,.66.66A.66.66,0,0,0,20.29,2.16Z"/><rect x="6.23" y="2.54" width="1.72" height="0.5"/><rect x="16.11" y="2.54" width="1.72" height="0.5"/><polygon points="2.54 19.25 1.94 20.65 1.35 19.25 2.54 19.25"/><path d="M1.94,21l-.8-1.89h1.6Zm-.38-1.62.38.91.38-.91Z"/></g></g></svg>