<svg xmlns="http://www.w3.org/2000/svg" viewBox="0 0 24.33 23.94"><defs><style>.cls-1{fill:#fff;}</style></defs><title>Ресурс 1</title><g id="Слой_2" data-name="Слой 2"><g id="Layer_1" data-name="Layer 1"><rect class="cls-1" x="3.75" y="9.34" width="2.58" height="8.58"/><path d="M6.71,18.29H3.38V9H6.71Zm-2.58-.75H6V9.71H4.13Z"/><path class="cls-1" d="M2.58,7.84A1.5,1.5,0,0,0,4,9.9H6.1A1.5,1.5,0,0,0,7.5,7.84Z"/><path d="M6.1,10.27H4A1.88,1.88,0,0,1,2.1,8.39a1.86,1.86,0,0,1,.13-.69l.09-.24H7.75l.09.24A1.87,1.87,0,0,1,6.1,10.27ZM2.86,8.21a1,1,0,0,0,0,.18A1.13,1.13,0,0,0,4,9.52H6.1A1.13,1.13,0,0,0,7.23,8.39a1,1,0,0,0,0-.18Z"/><path class="cls-1" d="M7.5,19.59a1.5,1.5,0,0,0-1.4-2.06H4a1.5,1.5,0,0,0-1.4,2.06Z"/><path d="M7.75,20H2.32l-.09-.24A1.86,1.86,0,0,1,2.1,19,1.88,1.88,0,0,1,4,17.15H6.1a1.87,1.87,0,0,1,1.74,2.57Zm-4.89-.75H7.21a1,1,0,0,0,0-.18A1.13,1.13,0,0,0,6.1,17.9H4A1.13,1.13,0,0,0,2.85,19,1,1,0,0,0,2.86,19.21Z"/><rect class="cls-1" x="10.88" y="9.34" width="2.58" height="8.58"/><path d="M13.84,18.29H10.5V9h3.33Zm-2.58-.75h1.83V9.71H11.25Z"/><path class="cls-1" d="M9.71,7.84A1.5,1.5,0,0,0,11.1,9.9h2.12a1.5,1.5,0,0,0,1.4-2.06Z"/><path d="M13.23,10.27H11.1A1.87,1.87,0,0,1,9.36,7.7l.09-.24h5.43L15,7.7a1.86,1.86,0,0,1,.13.69A1.88,1.88,0,0,1,13.23,10.27ZM10,8.21a1,1,0,0,0,0,.18A1.13,1.13,0,0,0,11.1,9.52h2.12a1.13,1.13,0,0,0,1.13-1.13,1,1,0,0,0,0-.18Z"/><path class="cls-1" d="M14.63,19.59a1.5,1.5,0,0,0-1.4-2.06H11.1a1.5,1.5,0,0,0-1.4,2.06Z"/><path d="M14.88,20H9.45l-.09-.24a1.87,1.87,0,0,1,1.75-2.57h2.12A1.88,1.88,0,0,1,15.11,19a1.86,1.86,0,0,1-.13.69ZM10,19.21h4.35a1,1,0,0,0,0-.18,1.13,1.13,0,0,0-1.13-1.13H11.1A1.13,1.13,0,0,0,10,19,1,1,0,0,0,10,19.21Z"/><rect class="cls-1" x="18.01" y="9.34" width="2.58" height="8.58"/><path d="M21,18.29H17.63V9H21Zm-2.58-.75h1.83V9.71H18.38Z"/><path class="cls-1" d="M16.84,7.84a1.5,1.5,0,0,0,1.4,2.06h2.12a1.5,1.5,0,0,0,1.4-2.06Z"/><path d="M20.36,10.27H18.23a1.88,1.88,0,0,1-1.88-1.88,1.86,1.86,0,0,1,.13-.69l.09-.24H22l.09.24a1.86,1.86,0,0,1,.13.69A1.88,1.88,0,0,1,20.36,10.27ZM17.12,8.21a1,1,0,0,0,0,.18,1.13,1.13,0,0,0,1.13,1.13h2.13a1.13,1.13,0,0,0,1.13-1.13,1,1,0,0,0,0-.18Z"/><path class="cls-1" d="M21.75,19.59a1.5,1.5,0,0,0-1.4-2.06H18.23a1.5,1.5,0,0,0-1.4,2.06Z"/><path d="M22,20H16.58l-.09-.24a1.86,1.86,0,0,1-.13-.69,1.88,1.88,0,0,1,1.88-1.88h2.13A1.88,1.88,0,0,1,22.24,19a1.86,1.86,0,0,1-.13.69Zm-4.89-.75h4.35a1,1,0,0,0,0-.18,1.13,1.13,0,0,0-1.13-1.13H18.23A1.13,1.13,0,0,0,17.1,19,1,1,0,0,0,17.12,19.21Z"/><rect x="4.79" y="9.9" width="0.5" height="7.63"/><rect x="11.86" y="9.9" width="0.5" height="7.63"/><rect x="19.03" y="9.9" width="0.5" height="7.63"/><rect class="cls-1" x="2.17" y="19.59" width="20" height="1.5"/><path d="M22.54,21.46H1.79V19.21H22.54Zm-20-.75H21.79V20H2.54Z"/><path d="M24.33,8.11H0v-2L12.17,0,24.33,6.09ZM.75,7.36H23.58V6.55L12.17.84.75,6.55Z"/><path d="M12,6.23a1.94,1.94,0,1,1,1.93-1.94A1.94,1.94,0,0,1,12,6.23Zm0-3.14a1.19,1.19,0,1,0,1.18,1.19A1.19,1.19,0,0,0,12,3.09Z"/><rect class="cls-1" x="0.54" y="20.99" width="23.25" height="2.58"/><path d="M24.17,23.94H.17V20.61h24ZM.92,23.19h22.5V21.36H.92Z"/><rect x="0.58" y="22.03" width="3.17" height="0.5"/><rect x="20.58" y="22.03" width="3.17" height="0.5"/></g></g></svg>